<?xml version="1.0" encoding="UTF-8"?>
<svg id="Livello_2" data-name="Livello 2" xmlns="http://www.w3.org/2000/svg" viewBox="0 0 506.89 108.42">
  <defs>
    <style>
      .cls-1 {
        fill: #133657;
      }

      .cls-2 {
        fill: #878787;
      }
    </style>
  </defs>
  <g id="Livello_1-2" data-name="Livello 1">
    <g>
      <g>
        <polygon class="cls-1" points="160.43 76.79 20.54 76.79 14.57 100.29 154.45 100.29 160.43 76.79"/>
        <polygon class="cls-1" points="145.86 41.05 5.98 41.05 0 64.55 139.88 64.55 145.86 41.05"/>
        <polygon class="cls-1" points="177.65 5.31 37.77 5.31 31.79 28.81 171.67 28.81 177.65 5.31"/>
      </g>
      <g>
        <path class="cls-1" d="M223.19,69.85c-3.04,1.94-6.33,2.28-10.88,2.28h-10.21c-7.09,0-11.56-4.3-11.56-11.05v-17.55c0-6.75,4.47-11.05,11.56-11.05h14.76c7.09,0,11.64,4.3,11.64,11.05v11.31h-28.6v4.39c0,3.21,2.11,5.32,5.65,5.32h6.33c2.7,0,5.65-.34,7.51-1.35l5.91-3.21,3.63,6.33-5.74,3.54ZM199.9,45.39v2.87h19.24v-2.87c0-3.21-2.28-5.32-5.74-5.32h-7.85c-3.54,0-5.65,2.11-5.65,5.32Z"/>
        <path class="cls-1" d="M293.12,45.39c0-3.21-1.86-5.32-5.31-5.32h-1.43c-2.53,0-4.3,1.01-6.33,2.62l-3.46,2.7v25.9h-9.36v-25.9c0-3.21-1.94-5.32-5.4-5.32h-1.77c-2.53,0-4.22,1.27-6.24,2.62l-3.37,2.28v26.32h-9.37v-25.56l-5.65-12.4h10.21l2.53,5.4,2.87-2.19c2.87-2.19,5.74-4.05,10.38-4.05h3.96c4.89,0,8.35,2.03,9.96,5.57l2.02-1.52c2.78-2.28,5.74-4.05,10.38-4.05h3.63c7.09,0,11.14,4.3,11.14,11.05v27.76h-9.37v-25.9Z"/>
        <path class="cls-1" d="M342.81,65.72l-2.87,2.36c-2.87,2.36-6.33,4.05-10.88,4.05h-4.47c-7.09,0-11.56-4.3-11.56-11.05v-3.29c0-3.38,2.36-7.26,6.83-7.68l20.67-2.11v-2.7c0-3.21-2.19-5.32-5.91-5.32h-8.01c-4.47,0-7,1.01-9.03,2.02l-3.04-6.16c2.62-2.02,6.92-3.38,12.66-3.38h10.97c7.09,0,11.73,4.3,11.73,11.05v15.36l5.65,12.4h-10.21l-2.53-5.57ZM340.53,54.33l-14.51,1.69c-2.53.25-3.63,1.69-3.63,3.71v.93c0,3.04,2.02,4.3,5.57,4.3h2.19c2.53,0,4.98-1.1,7-2.62l3.38-2.45v-5.57Z"/>
        <path class="cls-1" d="M363.56,33.32v-13.08l9.36-1.94v15.02h16.62v7.09h-16.62v16.79c0,3.8,2.19,6.5,6.16,6.5h2.78c2.7,0,5.65-.76,7.76-1.6l2.53,6.41c-2.45,1.18-6.33,2.78-11.73,2.78h-5.32c-7.09,0-11.56-4.3-11.56-11.05v-19.83h-5.74v-7.09h5.74Z"/>
        <path class="cls-1" d="M404.39,24.72c-3.63,0-6.16-2.45-6.16-5.99s2.53-6.07,6.16-6.07c3.38,0,6.08,2.62,6.08,6.07s-2.7,5.99-6.08,5.99ZM399.83,33.32h9.37v37.96h-9.37v-37.96Z"/>
        <path class="cls-1" d="M443.87,40.07h-7.68c-3.54,0-5.65,2.11-5.65,5.32v13.84c0,3.21,2.11,5.32,5.65,5.32h4.56c2.7,0,5.65-.34,7.51-1.35l5.82-3.21,3.63,6.33-5.65,3.54c-3.04,1.94-6.33,2.28-10.97,2.28h-8.35c-7.09,0-11.56-4.3-11.56-11.05v-17.55c0-6.75,4.47-11.05,11.56-11.05h10.54c5.82,0,10.12,1.43,12.82,3.38l-3.12,6.41c-2.02-1.1-4.56-2.19-9.11-2.19Z"/>
        <path class="cls-1" d="M494.15,65.72l-2.87,2.36c-2.87,2.36-6.33,4.05-10.88,4.05h-4.47c-7.09,0-11.56-4.3-11.56-11.05v-3.29c0-3.38,2.36-7.26,6.83-7.68l20.67-2.11v-2.7c0-3.21-2.19-5.32-5.91-5.32h-8.01c-4.47,0-7,1.01-9.03,2.02l-3.04-6.16c2.62-2.02,6.92-3.38,12.66-3.38h10.97c7.09,0,11.73,4.3,11.73,11.05v15.36l5.65,12.4h-10.21l-2.53-5.57ZM491.87,54.33l-14.51,1.69c-2.53.25-3.63,1.69-3.63,3.71v.93c0,3.04,2.02,4.3,5.57,4.3h2.19c2.53,0,4.98-1.1,7-2.62l3.38-2.45v-5.57Z"/>
      </g>
      <g>
        <path class="cls-2" d="M196.02,100.64h-1.94v-21.5h1.94v21.5Z"/>
        <path class="cls-2" d="M215.93,90.57c0-1.68-1.16-2.77-3.06-2.77h-2.25c-1.33,0-2.21.5-3.17,1.15l-2.28,1.65v10.03h-1.94v-10l-2.11-4.02h2.11l1.4,2.65,2.04-1.53c1.09-.81,2.25-1.43,4.05-1.43h2.62c2.76,0,4.53,1.59,4.53,4.08v10.25h-1.94v-10.06Z"/>
        <path class="cls-2" d="M223.59,86.61v-4.83l1.94-.44v5.27h8.27v1.43h-8.27v8.16c0,1.78,1.16,2.93,3.13,2.93h1.84c1.74,0,3.06-.4,3.74-.72l.58,1.34c-.95.37-2.49.87-4.49.87h-2.21c-2.76,0-4.53-1.59-4.53-4.08v-8.51h-2.18v-1.43h2.18Z"/>
        <path class="cls-2" d="M249.8,100.08c-1.16.69-2.52.87-4.32.87h-4.05c-2.76,0-4.53-1.59-4.53-4.08v-6.48c0-2.49,1.77-4.08,4.53-4.08h5.82c2.76,0,4.49,1.59,4.49,4.08v3.61h-12.9v2.68c0,1.68,1.16,2.77,3.06,2.77h3.47c1.26,0,2.62-.12,3.61-.72l2.11-1.22.82,1.28-2.11,1.28ZM238.83,90.57v2.06h10.96v-2.06c0-1.68-1.12-2.77-3.03-2.77h-4.87c-1.91,0-3.06,1.09-3.06,2.77Z"/>
        <path class="cls-2" d="M256.63,77.27h1.94v23.37h-1.94v-23.37Z"/>
        <path class="cls-2" d="M264.73,77.27h1.94v23.37h-1.94v-23.37Z"/>
        <path class="cls-2" d="M273.55,82.31c-.82,0-1.4-.56-1.4-1.31s.58-1.34,1.4-1.34,1.46.59,1.46,1.34-.61,1.31-1.46,1.31ZM272.63,86.61h1.94v14.02h-1.94v-14.02Z"/>
        <path class="cls-2" d="M294.99,102.66v.53c0,2.49-1.84,3.99-4.6,3.99h-7.76c-2.79,0-4.56-1.25-4.56-3.74v-.84c0-1.81,1.33-3.05,2.66-3.86-.54-.41-.78-1-.78-1.68v-.37c0-.78.41-1.59,1.26-2.15-1.12-.75-1.77-1.81-1.77-3.37v-.78c0-2.49,1.77-4.08,4.53-4.08h5.21c.88,0,1.7.19,2.35.5l2.69-3.24,1.43,1.03-2.93,3.15c.65.65.95,1.56.95,2.65v.81c0,2.49-1.74,4.08-4.49,4.08h-4.63c-.54,0-1.26-.06-1.7-.19-.61.31-.99.84-.99,1.4v.34c0,.65.41,1.09,1.36,1.15l7.39.72c2.76.22,4.39,1.46,4.39,3.96ZM289.99,100.17l-7.73-.75c-1.23.75-2.25,1.59-2.25,3.21v.65c0,1.71,1.12,2.46,3.03,2.46h6.98c1.94,0,3.06-1.03,3.06-2.71v-.28c0-1.71-1.12-2.37-3.1-2.59ZM284.34,93.84h4.46c1.91,0,3-1.03,3-2.71v-.69c0-1.68-1.09-2.71-3-2.71h-4.46c-1.91,0-3,1.03-3,2.71v.69c0,1.68,1.09,2.71,3,2.71Z"/>
        <path class="cls-2" d="M310.34,100.08c-1.16.69-2.52.87-4.32.87h-4.05c-2.76,0-4.53-1.59-4.53-4.08v-6.48c0-2.49,1.77-4.08,4.53-4.08h5.82c2.76,0,4.49,1.59,4.49,4.08v3.61h-12.9v2.68c0,1.68,1.16,2.77,3.06,2.77h3.47c1.26,0,2.62-.12,3.61-.72l2.11-1.22.82,1.28-2.11,1.28ZM299.38,90.57v2.06h10.96v-2.06c0-1.68-1.12-2.77-3.03-2.77h-4.87c-1.91,0-3.06,1.09-3.06,2.77Z"/>
        <path class="cls-2" d="M330.12,90.57c0-1.68-1.16-2.77-3.06-2.77h-2.25c-1.33,0-2.21.5-3.17,1.15l-2.28,1.65v10.03h-1.94v-10l-2.11-4.02h2.11l1.4,2.65,2.04-1.53c1.09-.81,2.25-1.43,4.05-1.43h2.62c2.76,0,4.53,1.59,4.53,4.08v10.25h-1.94v-10.06Z"/>
        <path class="cls-2" d="M345.53,87.8h-3.61c-1.91,0-3.06,1.09-3.06,2.77v6.11c0,1.68,1.16,2.77,3.06,2.77h2.55c1.26,0,2.62-.12,3.61-.72l2.14-1.22.82,1.28-2.14,1.28c-1.16.69-2.52.87-4.29.87h-3.17c-2.76,0-4.53-1.59-4.53-4.08v-6.48c0-2.49,1.77-4.08,4.53-4.08h4.02c2.35,0,3.88.5,4.94,1.15l-.68,1.25c-.27-.09-1.57-.9-4.19-.9Z"/>
        <path class="cls-2" d="M367.32,100.08c-1.16.69-2.52.87-4.32.87h-4.05c-2.76,0-4.53-1.59-4.53-4.08v-6.48c0-2.49,1.77-4.08,4.53-4.08h5.82c2.76,0,4.49,1.59,4.49,4.08v3.61h-12.9v2.68c0,1.68,1.16,2.77,3.06,2.77h3.47c1.26,0,2.62-.12,3.61-.72l2.11-1.22.82,1.28-2.11,1.28ZM356.36,90.57v2.06h10.96v-2.06c0-1.68-1.12-2.77-3.03-2.77h-4.87c-1.91,0-3.06,1.09-3.06,2.77Z"/>
        <path class="cls-2" d="M388.89,79.14h2.01l10.32,21.5h-2.11l-3.51-7.38h-11.44l-3.47,7.38h-2.11l10.32-21.5ZM394.89,91.76l-5-10.53-5,10.53h10.01Z"/>
        <path class="cls-2" d="M405.4,86.61v-4.83l1.94-.44v5.27h8.27v1.43h-8.27v8.16c0,1.78,1.16,2.93,3.13,2.93h1.84c1.74,0,3.06-.4,3.74-.72l.58,1.34c-.95.37-2.49.87-4.49.87h-2.21c-2.76,0-4.53-1.59-4.53-4.08v-8.51h-2.18v-1.43h2.18Z"/>
        <path class="cls-2" d="M447.81,100.64h-1.91l-5.82-18.32-5.75,18.32h-1.94l-7.97-21.5h2.11l6.74,18.73,5.82-18.73h2.01l5.82,18.73,6.74-18.73h2.11l-7.97,21.5Z"/>
        <path class="cls-2" d="M457.16,96.87v-6.48c0-2.49,1.77-4.08,4.53-4.08h6.13c2.76,0,4.49,1.59,4.49,4.08v6.48c0,2.49-1.74,4.08-4.49,4.08h-6.13c-2.76,0-4.53-1.59-4.53-4.08ZM470.37,96.62v-5.98c0-1.71-1.12-2.77-3.03-2.77h-5.17c-1.91,0-3.06,1.06-3.06,2.77v5.98c0,1.71,1.16,2.77,3.06,2.77h5.17c1.91,0,3.03-1.06,3.03-2.77Z"/>
        <path class="cls-2" d="M484.7,87.86c-1.29,0-2.01.41-2.83,1.15l-2.21,1.99v9.63h-1.94v-9.72l-2.11-4.3h2.11l1.36,2.9,1.84-1.68c.99-.9,2.01-1.53,3.78-1.53h2.32l-.27,1.56h-2.04Z"/>
        <path class="cls-2" d="M495.93,94.22h-2.86v6.42h-1.94v-23.37h1.94v15.52h2.86l6.54-6.17h2.38l-7.25,6.86,7.56,7.17h-2.49l-6.74-6.42Z"/>
      </g>
    </g>
  </g>
</svg>