<svg width="465" height="340" viewBox="0 0 465 340" fill="none" xmlns="http://www.w3.org/2000/svg">
<rect width="465" height="340" fill="#ADBBFF"/>
<path d="M67 215.711L83 198V278.289L67 296V215.711Z" fill="#18202D"/>
<path d="M39 217H67V296H39V217Z" fill="#00008B"/>
<path d="M123 75H405V266H123V75Z" fill="#18202D"/>
<path d="M111 86H393V277H111V86Z" fill="white"/>
<path d="M195 171H226V205H195V171Z" fill="#D9D9D9"/>
<path d="M261 171H292V205H261V171Z" fill="#D9D9D9"/>
<path d="M328 171H359V205H328V171Z" fill="#D9D9D9"/>
<path d="M195 243H226V277H195V243Z" fill="#D9D9D9"/>
<path d="M261 243H292V277H261V243Z" fill="#D9D9D9"/>
<path d="M328 243H359V277H328V243Z" fill="#D9D9D9"/>
<path d="M195 207H226V241H195V207Z" fill="#D9D9D9"/>
<path d="M261 207H292V241H261V207Z" fill="#D9D9D9"/>
<path d="M328 207H359V241H328V207Z" fill="#D9D9D9"/>
<path d="M195 279H226V313H195V279Z" fill="#D9D9D9"/>
<path d="M261 279H292V313H261V279Z" fill="#D9D9D9"/>
<path d="M328 279H359V313H328V279Z" fill="#D9D9D9"/>
<path d="M228 171H259V205H228V171Z" fill="#D9D9D9"/>
<path d="M295 171H326V205H295V171Z" fill="#D9D9D9"/>
<path d="M362 171H393V205H362V171Z" fill="#D9D9D9"/>
<path d="M395 171H426V205H395V171Z" fill="#D9D9D9"/>
<path d="M228 243H259V277H228V243Z" fill="#D9D9D9"/>
<path d="M295 243H326V277H295V243Z" fill="#D9D9D9"/>
<path d="M362 243H393V277H362V243Z" fill="#D9D9D9"/>
<path d="M395 243H426V277H395V243Z" fill="#D9D9D9"/>
<path d="M228 207H259V241H228V207Z" fill="#D9D9D9"/>
<path d="M295 207H326V241H295V207Z" fill="#D9D9D9"/>
<path d="M362 207H393V241H362V207Z" fill="#D9D9D9"/>
<path d="M395 207H426V241H395V207Z" fill="#D9D9D9"/>
<path d="M228 279H259V313H228V279Z" fill="#D9D9D9"/>
<path d="M295 279H326V313H295V279Z" fill="#D9D9D9"/>
<path d="M362 279H393V313H362V279Z" fill="#D9D9D9"/>
<path d="M395 279H426V313H395V279Z" fill="#D9D9D9"/>
<path d="M139 193.59L155 171V273.41L139 296V193.59Z" fill="#18202D"/>
<path d="M103 223.084L119 207V279.916L103 296V223.084Z" fill="#18202D"/>
<path d="M111 194H139V296H111V194Z" fill="#00008B"/>
<path d="M75 224H103V296H75V224Z" fill="#00008B"/>
<path d="M372.301 239.425L372.353 239.57C372.846 241.079 372.073 242.725 370.575 243.301C369.077 243.876 367.402 243.169 366.759 241.719L366.699 241.575L342.27 177.967L271.978 282.659L240.947 213.591L196.471 278.201C195.531 279.566 193.663 279.91 192.299 278.971C190.934 278.031 190.59 276.163 191.529 274.799L242.052 201.408L273.021 270.342L343.729 165.032L372.301 239.425Z" fill="#00008B"/>
<circle cx="129.5" cy="59.5" r="5.5" fill="white"/>
<circle cx="147.5" cy="59.5" r="5.5" fill="white"/>
<circle cx="165.5" cy="59.5" r="5.5" fill="white"/>
</svg>
