<svg width="465" height="340" viewBox="0 0 465 340" fill="none" xmlns="http://www.w3.org/2000/svg">
<rect width="465" height="340" fill="#ADBBFF"/>
<path d="M52 54.22C156.227 59.5933 260.457 65.04 364.69 70.56C364.71 135.667 364.737 200.857 364.77 266.13C261.203 277.277 157.637 288.393 54.07 299.48C53.3833 217.76 52.6933 136.007 52 54.22Z" fill="#18202D"/>
<path d="M61.21 41C165.477 47.3067 269.74 53.5833 374 59.83C374.013 124.657 374.023 189.447 374.03 254.2C270.43 264.413 166.83 274.703 63.23 285.07C62.55 203.63 61.8767 122.273 61.21 41Z" fill="white"/>
<path d="M97.81 64.76C129.437 66.3067 161.067 67.8733 192.7 69.46C192.707 70.3533 192.713 71.2467 192.72 72.14C161.087 70.6067 129.457 69.0933 97.83 67.6C97.8233 66.6533 97.8167 65.7067 97.81 64.76Z" fill="#D9D9D9"/>
<path d="M97.81 64.76C129.437 66.3067 161.067 67.8733 192.7 69.46C192.707 70.3533 192.713 71.2467 192.72 72.14C161.087 70.6067 129.457 69.0933 97.83 67.6C97.8233 66.6533 97.8167 65.7067 97.81 64.76Z" fill="#00008B"/>
<path d="M97.88 75.19C129.507 76.53 161.133 77.8967 192.76 79.29C192.76 80.1833 192.763 81.0767 192.77 81.97C161.143 80.6367 129.52 79.33 97.9 78.05C97.8933 77.0967 97.8867 76.1433 97.88 75.19Z" fill="#00008B"/>
<path d="M97.96 85.68C129.573 86.7933 161.19 87.9433 192.81 89.13C192.817 90.3233 192.823 91.5167 192.83 92.71C161.21 91.6033 129.597 90.5367 97.99 89.51C97.9767 88.23 97.9667 86.9533 97.96 85.68Z" fill="#00008B"/>
<path d="M97.81 64.76C110.237 65.36 122.663 65.9667 135.09 66.58C135.097 67.5 135.1 68.4233 135.1 69.35C122.673 68.7567 110.25 68.1733 97.83 67.6C97.8233 66.6533 97.8167 65.7067 97.81 64.76Z" fill="#D9D9D9"/>
<path d="M97.81 64.76C117.577 65.72 137.347 66.6933 157.12 67.68C157.12 68.5933 157.123 69.5033 157.13 70.41C137.363 69.4567 117.597 68.52 97.83 67.6C97.8233 66.6533 97.8167 65.7067 97.81 64.76Z" fill="#D9D9D9"/>
<path d="M97.13 197.48C97.09 191.61 101.21 186.71 106.34 186.53C180.367 183.81 254.39 181.097 328.41 178.39C333.54 178.22 337.71 181.99 337.71 186.83C337.71 191.66 333.56 195.78 328.43 196.02C254.457 199.88 180.48 203.757 106.5 207.65C101.37 207.9 97.18 203.34 97.13 197.48Z" fill="#D9D9D9"/>
<path d="M97.13 197.48C97.09 191.61 101.21 186.71 106.34 186.53C168.26 184.263 230.18 181.98 292.1 179.68C297.23 179.5 301.4 183.37 301.41 188.35C301.42 193.32 297.27 197.57 292.14 197.84C230.26 201.14 168.38 204.41 106.5 207.65C101.37 207.9 97.18 203.34 97.13 197.48Z" fill="#00008B"/>
<path d="M97.88 75.19C110.307 75.7033 122.73 76.2267 135.15 76.76C135.157 77.6867 135.163 78.6133 135.17 79.54C122.75 79.0333 110.327 78.5367 97.9 78.05C97.8933 77.0967 97.8867 76.1433 97.88 75.19Z" fill="#D9D9D9"/>
<path d="M97.96 85.68C123.927 86.5867 149.897 87.5233 175.87 88.49C175.877 89.6967 175.883 90.9033 175.89 92.11C149.923 91.21 123.957 90.3433 97.99 89.51C97.9767 88.23 97.9667 86.9533 97.96 85.68Z" fill="#D9D9D9"/>
<path d="M319.82 81.97C319.83 87.18 315.47 91.24 310.1 91.04C304.71 90.84 300.35 86.4 300.33 81.11C300.32 75.8 304.66 71.72 310.05 72C315.43 72.27 319.8 76.74 319.82 81.97Z" fill="#00008B"/>
<path d="M213.87 243.51C213.89 249.35 209.58 254.5 204.23 255C198.87 255.49 194.51 251.08 194.48 245.16C194.45 239.23 198.76 234.09 204.12 233.67C209.48 233.25 213.84 237.66 213.87 243.51Z" fill="#00008B"/>
<path d="M187.08 124.92C188.7 124.94 190.16 125.39 191.44 126.3C192.75 127.17 193.77 128.36 194.5 129.89C195.24 131.4 195.61 133.08 195.62 134.92C195.64 137.41 195.21 139.71 194.34 141.83C193.5 143.93 191.96 146.04 189.73 148.16C187.53 150.31 184.43 152.51 180.45 154.78C180.17 154.24 179.893 153.697 179.62 153.15C183.72 150.19 186.66 147.37 188.44 144.69C190.23 142.02 191.13 139.28 191.11 136.48C191.11 134.96 190.88 133.57 190.45 132.31C190.01 131.02 189.35 129.99 188.44 129.21C187.57 128.43 186.49 128.03 185.23 128.02C183.97 128.01 183.03 128.47 182.39 129.41C181.76 130.34 181.45 131.73 181.46 133.57C181.47 135.71 182.05 137.52 183.21 139C184.38 140.49 185.87 141.56 187.69 142.23C187.337 142.823 186.987 143.413 186.64 144C184.85 144 183.21 143.64 181.73 142.88C180.28 142.12 179.11 141.06 178.25 139.71C177.42 138.37 176.99 136.88 176.98 135.25C176.97 133.57 177.46 131.92 178.43 130.29C179.42 128.68 180.7 127.37 182.28 126.37C183.86 125.38 185.45 124.9 187.08 124.92Z" fill="#00008B"/>
<path d="M210.73 125.18C212.35 125.2 213.81 125.65 215.09 126.54C216.4 127.4 217.42 128.57 218.15 130.06C218.89 131.55 219.26 133.2 219.27 135C219.28 137.44 218.85 139.7 217.98 141.77C217.14 143.83 215.6 145.9 213.37 147.98C211.16 150.09 208.06 152.24 204.08 154.47C203.807 153.937 203.53 153.407 203.25 152.88C207.35 149.97 210.3 147.21 212.08 144.58C213.87 141.96 214.77 139.28 214.76 136.53C214.75 135.03 214.53 133.68 214.1 132.44C213.66 131.17 213 130.16 212.1 129.4C211.22 128.63 210.14 128.24 208.88 128.23C207.62 128.22 206.68 128.67 206.04 129.59C205.41 130.51 205.1 131.87 205.1 133.67C205.12 135.77 205.7 137.55 206.86 139C208.02 140.46 209.51 141.51 211.33 142.17C210.977 142.75 210.627 143.327 210.28 143.9C208.49 143.91 206.85 143.55 205.37 142.81C203.91 142.06 202.76 141.02 201.9 139.7C201.06 138.38 200.63 136.92 200.62 135.32C200.61 133.67 201.1 132.06 202.08 130.46C203.07 128.87 204.36 127.59 205.93 126.61C207.51 125.64 209.11 125.17 210.73 125.18Z" fill="#00008B"/>
<path d="M233.3 121.64C234.69 121.66 235.94 121.97 237.02 122.56C238.11 123.14 238.95 123.93 239.57 124.92C240.18 125.89 240.49 126.97 240.49 128.15C240.5 129.44 240.03 130.64 239.08 131.75C238.15 132.84 236.98 133.71 235.57 134.37C234.16 135.02 232.81 135.35 231.51 135.34C230.14 135.34 228.9 135.06 227.79 134.5C226.7 133.92 225.85 133.13 225.24 132.13C224.62 131.13 224.32 130.02 224.32 128.8C224.31 127.52 224.77 126.32 225.7 125.22C226.62 124.11 227.79 123.22 229.2 122.58C230.61 121.94 231.97 121.63 233.3 121.64ZM231.78 124.01C229.22 123.97 227.95 125.21 227.96 127.73C227.96 129.22 228.39 130.46 229.24 131.46C230.12 132.44 231.36 132.92 232.99 132.93C235.57 132.95 236.86 131.71 236.85 129.2C236.85 127.73 236.4 126.51 235.54 125.53C234.66 124.54 233.41 124.03 231.78 124.01ZM227.85 155.03C227.437 154.71 227.023 154.393 226.61 154.08C235.643 142.773 244.68 131.593 253.72 120.54C254.147 120.84 254.57 121.137 254.99 121.43C245.937 132.503 236.89 143.703 227.85 155.03ZM249.34 140.93C250.73 140.92 251.96 141.2 253.05 141.76C254.14 142.32 254.99 143.09 255.6 144.06C256.21 145.01 256.52 146.06 256.52 147.23C256.53 148.49 256.05 149.68 255.1 150.76C254.17 151.88 253 152.76 251.59 153.43C250.19 154.1 248.83 154.44 247.53 154.46C246.16 154.48 244.93 154.21 243.82 153.66C242.73 153.13 241.88 152.37 241.27 151.4C240.66 150.42 240.35 149.33 240.35 148.13C240.34 146.86 240.8 145.68 241.73 144.58C242.66 143.46 243.83 142.57 245.23 141.91C246.64 141.26 248.01 140.93 249.34 140.93ZM247.82 143.28C245.26 143.29 243.98 144.54 243.98 147.03C243.99 148.48 244.42 149.7 245.27 150.67C246.14 151.64 247.39 152.12 249.02 152.1C251.6 152.07 252.88 150.81 252.87 148.32C252.87 146.87 252.43 145.68 251.56 144.72C250.69 143.75 249.44 143.27 247.82 143.28Z" fill="#00008B"/>
<path d="M211.35 245.05C211.37 250.67 207.06 255.62 201.71 256.12C196.35 256.62 191.99 252.41 191.96 246.72C191.93 241.02 196.24 236.07 201.6 235.65C206.95 235.22 211.32 239.43 211.35 245.05Z" fill="#D9D9D9"/>
<path d="M203.61 240.2C204.39 239.64 205.43 239.77 205.96 240.52C206.49 241.25 206.32 242.33 205.59 242.96C205.563 242.98 205.537 243 205.51 243.02C204.49 243.82 203.47 244.62 202.45 245.42C203.463 246.007 204.48 246.59 205.5 247.17C205.527 247.19 205.55 247.207 205.57 247.22C206.33 247.7 206.52 248.74 206.02 249.59C205.52 250.42 204.49 250.76 203.69 250.36C203.663 250.347 203.64 250.333 203.62 250.32C201.14 248.893 198.657 247.463 196.17 246.03C198.623 244.103 201.077 242.177 203.53 240.25C203.557 240.23 203.583 240.213 203.61 240.2Z" fill="#00008B"/>
<path d="M243.36 240.99C243.39 246.72 239.07 251.78 233.72 252.28C228.36 252.77 224.01 248.45 223.98 242.65C223.95 236.83 228.27 231.79 233.63 231.37C238.98 230.96 243.34 235.26 243.36 240.99Z" fill="#00008B"/>
<path d="M240.84 242.51C240.86 248.01 236.54 252.88 231.19 253.38C225.83 253.88 221.48 249.76 221.46 244.18C221.43 238.59 225.74 233.74 231.11 233.31C236.46 232.89 240.82 237 240.84 242.51Z" fill="#D9D9D9"/>
<path d="M229.98 238.02C229.19 237.61 228.16 237.9 227.64 238.72C227.11 239.53 227.29 240.57 228.03 241.07C228.05 241.083 228.073 241.097 228.1 241.11C229.127 241.723 230.153 242.337 231.18 242.95C230.173 243.697 229.167 244.443 228.16 245.19C228.127 245.21 228.1 245.23 228.08 245.25C227.33 245.86 227.14 246.92 227.65 247.66C228.16 248.39 229.19 248.55 229.99 248.01C230.017 247.99 230.04 247.97 230.06 247.95C232.527 246.123 234.997 244.3 237.47 242.48C234.997 241.013 232.527 239.54 230.06 238.06C230.027 238.047 230 238.033 229.98 238.02Z" fill="#00008B"/>
<path d="M341.84 82.88C341.85 87.99 337.49 91.99 332.11 91.82C326.73 91.64 322.37 87.28 322.36 82.08C322.35 76.86 326.69 72.84 332.08 73.11C337.46 73.37 341.83 77.74 341.84 82.88Z" fill="#00008B"/>
<path d="M437 134L387 138L387 130L437 134Z" fill="white"/>
<path d="M445 154L387 158L387 150L445 154Z" fill="white"/>
<path d="M454.5 173.897L387 177.794L387 170L454.5 173.897Z" fill="white"/>
<circle cx="72.5" cy="22.5" r="5.5" fill="white"/>
<circle cx="90.5" cy="22.5" r="5.5" fill="white"/>
<circle cx="108.5" cy="22.5" r="5.5" fill="white"/>
</svg>
