<svg width="465" height="340" viewBox="0 0 465 340" fill="none" xmlns="http://www.w3.org/2000/svg">
<rect width="465" height="340" fill="white"/>
<rect x="133" y="28" width="198" height="284" fill="#18202D"/>
<rect x="115" y="13" width="198" height="284" fill="#ADBBFF"/>
<path d="M141.02 127.539C145.349 102.716 162.273 80.7573 187.489 71.1416L213.152 139.516L141.02 127.539Z" fill="#00008B"/>
<path d="M242.229 100.243C258.778 109.304 270 126.881 270 147.078C270 176.548 246.109 200.438 216.639 200.438C187.169 200.438 163.278 176.548 163.278 147.078C163.278 146.684 163.283 146.291 163.292 145.898H216.423L242.229 100.243Z" fill="white"/>
<path d="M89.1875 236.186V249.093H94.6455L95.0195 249.978H89.1875V265.014H101.377L101.75 265.897H89.1875V280.934H88.3027V265.897H74.5938V280.934H73.709V265.897H67.2764L67.9121 265.014H73.709V256.952L74.5938 255.722V265.014H88.3027V249.978H78.7246L79.3613 249.093H88.3027V236.657L88.9854 235.708L89.1875 236.186ZM133.853 223.45V233.173H139.198L139.685 234.058H133.853V249.093H147.562V248.384L148.446 249.993V265.014H156.704L157.19 265.897H148.446V280.934H147.562V265.897H133.853V280.934H132.526V265.897H118.816V280.934H117.933V265.897H104.223V280.934H102.896V267.797L104.564 265.014H117.933V249.978H113.572L114.103 249.093H117.933V242.699L118.816 241.225V249.093H132.526V234.058H123.11L123.641 233.173H132.526V221.039L133.853 223.45ZM118.816 265.014H132.526V249.978H118.816V265.014ZM133.853 265.014H147.562V249.978H133.853V265.014Z" fill="white"/>
<path d="M60 275.312V266.08H66.6396L60 275.312ZM162.155 274.225L157.677 266.08H162.155V274.225ZM102.896 267.094L102.695 267.43L102.125 266.08H102.896V267.094ZM73.709 256.249L67.2754 265.195H60V250.159H73.709V256.249ZM162.155 265.195H157.19L148.924 250.159H162.155V265.195ZM102.896 265.195H101.751L95.3936 250.159H102.896V265.195ZM104.223 264.88V250.159H113.042L104.223 264.88ZM74.5938 255.019V250.159H78.0879L74.5938 255.019ZM73.709 249.274H60V234.239H73.709V249.274ZM88.3027 235.954L85.8672 239.342L78.7246 249.274H74.5938V234.239H88.3027V235.954ZM117.933 241.996L113.572 249.274H104.223V234.239H117.933V241.996ZM162.155 249.274H148.446V234.239H162.155V249.274ZM102.896 249.274H95.0195L91.0664 239.925L89.1875 235.482V234.239H102.896V249.274ZM147.562 247.681L140.171 234.239H147.562V247.681ZM118.816 240.521V234.239H122.58L118.816 240.521ZM73.709 233.354H60V218.318H73.709V233.354ZM88.3027 233.354H74.5938V218.318H88.3027V233.354ZM102.896 233.354H89.1875V218.318H102.896V233.354ZM117.933 233.354H104.223V218.318H117.933V233.354ZM132.526 220.335L131.753 218.929L129.068 223.41L123.11 233.354H118.816V218.318H132.526V220.335ZM162.155 233.354H148.446V218.318H162.155V233.354ZM147.562 233.354H139.685L134.271 223.507L133.853 222.746V218.318H147.562V233.354Z" fill="#00008B"/>
<path d="M68.8446 214H171L162.155 218H60L68.8446 214Z" fill="white"/>
<path d="M171 214V277.584L162 282V218.416L171 214Z" fill="#18202D"/>
</svg>
